<svg width="27" height="27" viewBox="0 0 27 27" fill="none" xmlns="http://www.w3.org/2000/svg">
<path d="M13.5002 0.901855C10.4331 0.901983 7.46613 1.99346 5.13015 3.98099C2.79418 5.96852 1.24164 8.72241 0.750328 11.7499C0.25902 14.7774 0.861004 17.8809 2.44857 20.5052C4.03613 23.1294 6.50568 25.1031 9.41533 26.0732C10.0612 26.1862 10.3033 25.7988 10.3033 25.4597C10.3033 25.1529 10.2872 24.1357 10.2872 23.0539C7.04186 23.6513 6.20228 22.2628 5.94395 21.5363C5.6573 20.8296 5.20289 20.2034 4.61999 19.7118C4.16791 19.4696 3.52207 18.8722 4.60383 18.856C5.01689 18.9009 5.41306 19.0446 5.75876 19.2751C6.10447 19.5055 6.38953 19.8159 6.58978 20.18C6.76644 20.4973 7.00399 20.7767 7.28882 21.0021C7.57364 21.2275 7.90014 21.3945 8.24961 21.4935C8.59908 21.5925 8.96465 21.6215 9.32537 21.579C9.68609 21.5365 10.0349 21.4232 10.3517 21.2456C10.4077 20.5889 10.7003 19.975 11.1752 19.518C8.30124 19.1951 5.29811 18.081 5.29811 13.1404C5.27996 11.8567 5.75367 10.6147 6.62207 9.66908C6.22719 8.55336 6.27339 7.32895 6.75124 6.24617C6.75124 6.24617 7.83297 5.90709 10.3033 7.57012C12.4169 6.98884 14.6481 6.98884 16.7617 7.57012C19.2319 5.89096 20.3137 6.24617 20.3137 6.24617C20.7917 7.32893 20.8379 8.55337 20.4429 9.66908C21.3139 10.6131 21.788 11.8562 21.7669 13.1404C21.7669 18.0972 18.7476 19.1951 15.8736 19.518C16.1819 19.8305 16.4193 20.2056 16.5697 20.6179C16.7202 21.0302 16.7801 21.4701 16.7455 21.9076C16.7455 23.6353 16.7294 25.0237 16.7294 25.4597C16.7294 25.7988 16.9715 26.2024 17.6174 26.0732C20.5219 25.0953 22.9843 23.1169 24.5651 20.4913C26.1459 17.8657 26.7422 14.7638 26.2475 11.7392C25.7528 8.71469 24.1993 5.96438 21.8643 3.97927C19.5294 1.99415 16.5649 0.903451 13.5002 0.901855Z" fill="white"/>
</svg>
