<svg width="764" height="1210" viewBox="0 0 764 1210" fill="none" xmlns="http://www.w3.org/2000/svg">
<g filter="url(#filter0_f_636_28)">
<ellipse cx="638" cy="605" rx="441" ry="408" fill="#1D1D1D" fill-opacity="0.7"/>
</g>
<rect x="174.92" y="531.81" width="2.16525" height="728.506" transform="rotate(-45 174.92 531.81)" fill="#4C4C4C" fill-opacity="0.7"/>
<rect x="260.66" y="446.07" width="2.16525" height="727.318" transform="rotate(-45 260.66 446.07)" fill="#4C4C4C" fill-opacity="0.7"/>
<rect x="346.399" y="360.33" width="2.16525" height="728.506" transform="rotate(-45 346.399 360.33)" fill="#4C4C4C" fill-opacity="0.7"/>
<rect x="432.139" y="274.59" width="2.16525" height="727.318" transform="rotate(-45 432.139 274.59)" fill="#4C4C4C" fill-opacity="0.7"/>
<rect x="517.038" y="188.011" width="2.16525" height="728.506" transform="rotate(-45 517.038 188.011)" fill="#4C4C4C" fill-opacity="0.7"/>
<rect x="603.618" y="103.111" width="2.16525" height="728.506" transform="rotate(-45 603.618 103.111)" fill="#4C4C4C" fill-opacity="0.7"/>
<rect x="689.358" y="17.3716" width="2.16525" height="728.506" transform="rotate(-45 689.358 17.3716)" fill="#4C4C4C" fill-opacity="0.7"/>
<rect x="690.893" y="1046.1" width="2.16174" height="728.501" transform="rotate(-135 690.893 1046.1)" fill="#4C4C4C" fill-opacity="0.7"/>
<rect x="605.292" y="960.5" width="2.16174" height="727.313" transform="rotate(-135 605.292 960.5)" fill="#4C4C4C" fill-opacity="0.7"/>
<rect x="519.692" y="874.9" width="2.16174" height="728.501" transform="rotate(-135 519.692 874.9)" fill="#4C4C4C" fill-opacity="0.7"/>
<rect x="434.091" y="789.299" width="2.16174" height="727.313" transform="rotate(-135 434.091 789.299)" fill="#4C4C4C" fill-opacity="0.7"/>
<rect x="347.608" y="704.657" width="2.16174" height="728.501" transform="rotate(-135 347.608 704.657)" fill="#4C4C4C" fill-opacity="0.7"/>
<rect x="262.89" y="618.098" width="2.16174" height="728.501" transform="rotate(-135 262.89 618.098)" fill="#4C4C4C" fill-opacity="0.7"/>
<rect x="177.29" y="532.498" width="2.16174" height="728.501" transform="rotate(-135 177.29 532.498)" fill="#4C4C4C" fill-opacity="0.7"/>
<defs>
<filter id="filter0_f_636_28" x="0" y="0" width="1276" height="1210" filterUnits="userSpaceOnUse" color-interpolation-filters="sRGB">
<feFlood flood-opacity="0" result="BackgroundImageFix"/>
<feBlend mode="normal" in="SourceGraphic" in2="BackgroundImageFix" result="shape"/>
<feGaussianBlur stdDeviation="98.5" result="effect1_foregroundBlur_636_28"/>
</filter>
</defs>
</svg>
