<svg width="167" height="126" viewBox="0 0 167 126" fill="none" xmlns="http://www.w3.org/2000/svg">
<path d="M43.7393 5.35723C44.0676 2.30995 46.6398 0 49.7047 0H135.393C138.962 0 141.741 3.09521 141.359 6.64277L129.492 116.777C129.164 119.824 126.592 122.134 123.527 122.134H37.838C34.2699 122.134 31.4902 119.039 31.8725 115.492L43.7393 5.35723Z" fill="#B4B3B3"/>
<path d="M41.236 5.344C41.5706 2.30252 44.1402 0 47.2 0H132.886C136.459 0 139.241 3.10401 138.85 6.656L127.01 114.298C126.675 117.339 124.106 119.642 121.046 119.642H35.3602C31.7868 119.642 29.0055 116.538 29.3962 112.986L41.236 5.344Z" fill="#EBEBEB"/>
<path d="M44.5539 6.38824C44.7316 4.87741 46.0121 3.73877 47.5333 3.73877H132.47C134.265 3.73877 135.659 5.30581 135.449 7.08929L133.662 22.2759C133.485 23.7867 132.204 24.9253 130.683 24.9253H45.7467C43.9509 24.9253 42.5574 23.3583 42.7672 21.5748L44.5539 6.38824Z" fill="#A431FF"/>
<path d="M65.98 9.98C66.6267 9.98 67.1833 10.0967 67.65 10.33C68.1233 10.5567 68.4833 10.88 68.73 11.3C68.9833 11.7133 69.11 12.2 69.11 12.76C69.11 12.9533 69.0867 13.1967 69.04 13.49C68.92 14.1767 68.66 14.7867 68.26 15.32C67.8667 15.8533 67.3633 16.2667 66.75 16.56C66.1433 16.8533 65.4733 17 64.74 17H62.11L63.35 9.98H65.98ZM64.89 15.54C65.5367 15.54 66.0733 15.36 66.5 15C66.9267 14.64 67.1933 14.1367 67.3 13.49C67.3333 13.29 67.35 13.1233 67.35 12.99C67.35 12.4967 67.2 12.1167 66.9 11.85C66.6 11.5767 66.1733 11.44 65.62 11.44H64.8L64.08 15.54H64.89ZM72.8556 11.34C73.5756 11.34 74.1456 11.5367 74.5656 11.93C74.9923 12.3167 75.2056 12.8467 75.2056 13.52C75.2056 13.74 75.189 13.9367 75.1556 14.11C75.129 14.2633 75.089 14.4267 75.0356 14.6H71.1656C71.159 14.64 71.1556 14.7033 71.1556 14.79C71.1556 15.0833 71.2356 15.3067 71.3956 15.46C71.5556 15.6133 71.769 15.69 72.0356 15.69C72.4623 15.69 72.789 15.51 73.0156 15.15H74.8356C74.5956 15.7167 74.2056 16.18 73.6656 16.54C73.1256 16.9 72.519 17.08 71.8456 17.08C71.1256 17.08 70.549 16.88 70.1156 16.48C69.689 16.08 69.4756 15.5367 69.4756 14.85C69.4756 14.6433 69.4956 14.43 69.5356 14.21C69.6356 13.63 69.8423 13.1233 70.1556 12.69C70.469 12.2567 70.859 11.9233 71.3256 11.69C71.7923 11.4567 72.3023 11.34 72.8556 11.34ZM73.4756 13.73C73.489 13.6367 73.4956 13.5733 73.4956 13.54C73.4956 13.2733 73.4123 13.07 73.2456 12.93C73.079 12.7833 72.859 12.71 72.5856 12.71C72.2923 12.71 72.0323 12.8 71.8056 12.98C71.5856 13.1533 71.4256 13.4033 71.3256 13.73H73.4756ZM75.6977 14.21C75.7977 13.63 76.0044 13.1233 76.3177 12.69C76.6311 12.2567 77.0177 11.9233 77.4777 11.69C77.9444 11.4567 78.4511 11.34 78.9977 11.34C79.6977 11.34 80.2511 11.5233 80.6577 11.89C81.0644 12.2567 81.2811 12.7733 81.3077 13.44H79.4877C79.4144 13.0133 79.1544 12.8 78.7077 12.8C78.3944 12.8 78.1244 12.9233 77.8977 13.17C77.6711 13.41 77.5177 13.7567 77.4377 14.21C77.4111 14.35 77.3977 14.4967 77.3977 14.65C77.3977 14.9633 77.4711 15.2033 77.6177 15.37C77.7644 15.5367 77.9644 15.62 78.2177 15.62C78.6577 15.62 78.9877 15.4067 79.2077 14.98H81.0377C80.7777 15.6333 80.3777 16.1467 79.8377 16.52C79.2977 16.8933 78.6811 17.08 77.9877 17.08C77.2677 17.08 76.6944 16.8833 76.2677 16.49C75.8477 16.09 75.6377 15.5467 75.6377 14.86C75.6377 14.6533 75.6577 14.4367 75.6977 14.21ZM85.0724 11.34C85.7924 11.34 86.3624 11.5367 86.7824 11.93C87.2091 12.3167 87.4224 12.8467 87.4224 13.52C87.4224 13.74 87.4058 13.9367 87.3724 14.11C87.3458 14.2633 87.3058 14.4267 87.2524 14.6H83.3824C83.3758 14.64 83.3724 14.7033 83.3724 14.79C83.3724 15.0833 83.4524 15.3067 83.6124 15.46C83.7724 15.6133 83.9858 15.69 84.2524 15.69C84.6791 15.69 85.0058 15.51 85.2324 15.15H87.0524C86.8124 15.7167 86.4224 16.18 85.8824 16.54C85.3424 16.9 84.7358 17.08 84.0624 17.08C83.3424 17.08 82.7658 16.88 82.3324 16.48C81.9058 16.08 81.6924 15.5367 81.6924 14.85C81.6924 14.6433 81.7124 14.43 81.7524 14.21C81.8524 13.63 82.0591 13.1233 82.3724 12.69C82.6858 12.2567 83.0758 11.9233 83.5424 11.69C84.0091 11.4567 84.5191 11.34 85.0724 11.34ZM85.6924 13.73C85.7058 13.6367 85.7124 13.5733 85.7124 13.54C85.7124 13.2733 85.6291 13.07 85.4624 12.93C85.2958 12.7833 85.0758 12.71 84.8024 12.71C84.5091 12.71 84.2491 12.8 84.0224 12.98C83.8024 13.1533 83.6424 13.4033 83.5424 13.73H85.6924ZM95.8745 11.36C96.4745 11.36 96.9412 11.52 97.2745 11.84C97.6145 12.1533 97.7845 12.5933 97.7845 13.16C97.7845 13.3333 97.7645 13.5267 97.7245 13.74L97.1445 17H95.4445L95.9845 13.97C95.9979 13.9033 96.0045 13.8133 96.0045 13.7C96.0045 13.42 95.9245 13.2067 95.7645 13.06C95.6112 12.9133 95.3945 12.84 95.1145 12.84C94.7812 12.84 94.5012 12.94 94.2745 13.14C94.0479 13.3333 93.9045 13.61 93.8445 13.97L93.3045 17H91.6045L92.1445 13.97C92.1579 13.9033 92.1645 13.8133 92.1645 13.7C92.1645 13.42 92.0845 13.2067 91.9245 13.06C91.7712 12.9133 91.5545 12.84 91.2745 12.84C90.9412 12.84 90.6612 12.94 90.4345 13.14C90.2079 13.3333 90.0645 13.61 90.0045 13.97V13.92L89.4645 17H87.7545L88.7345 11.42H90.4445L90.3245 12.13C90.5379 11.89 90.7945 11.7033 91.0945 11.57C91.4012 11.43 91.7312 11.36 92.0845 11.36C92.5112 11.36 92.8712 11.45 93.1645 11.63C93.4645 11.81 93.6779 12.07 93.8045 12.41C94.0512 12.0967 94.3579 11.8433 94.7245 11.65C95.0912 11.4567 95.4745 11.36 95.8745 11.36ZM100.89 12.21C101.104 11.95 101.374 11.74 101.7 11.58C102.027 11.42 102.384 11.34 102.77 11.34C103.37 11.34 103.854 11.5367 104.22 11.93C104.594 12.3167 104.78 12.8467 104.78 13.52C104.78 13.7333 104.76 13.96 104.72 14.2C104.62 14.7733 104.424 15.28 104.13 15.72C103.837 16.1533 103.484 16.49 103.07 16.73C102.657 16.9633 102.22 17.08 101.76 17.08C101.367 17.08 101.037 17.0033 100.77 16.85C100.504 16.69 100.31 16.48 100.19 16.22L100.05 17H98.3405L99.6505 9.6H101.36L100.89 12.21ZM102.99 14.2C103.01 14.0867 103.02 13.9833 103.02 13.89C103.02 13.5567 102.924 13.2967 102.73 13.11C102.544 12.9233 102.304 12.83 102.01 12.83C101.67 12.83 101.36 12.9533 101.08 13.2C100.8 13.4467 100.62 13.7833 100.54 14.21C100.52 14.33 100.51 14.44 100.51 14.54C100.51 14.8667 100.604 15.1233 100.79 15.31C100.977 15.4967 101.217 15.59 101.51 15.59C101.85 15.59 102.16 15.4667 102.44 15.22C102.727 14.9667 102.91 14.6267 102.99 14.2ZM108.608 11.34C109.328 11.34 109.898 11.5367 110.318 11.93C110.744 12.3167 110.958 12.8467 110.958 13.52C110.958 13.74 110.941 13.9367 110.908 14.11C110.881 14.2633 110.841 14.4267 110.788 14.6H106.918C106.911 14.64 106.908 14.7033 106.908 14.79C106.908 15.0833 106.988 15.3067 107.148 15.46C107.308 15.6133 107.521 15.69 107.788 15.69C108.214 15.69 108.541 15.51 108.768 15.15H110.588C110.348 15.7167 109.958 16.18 109.418 16.54C108.878 16.9 108.271 17.08 107.598 17.08C106.878 17.08 106.301 16.88 105.868 16.48C105.441 16.08 105.228 15.5367 105.228 14.85C105.228 14.6433 105.248 14.43 105.288 14.21C105.388 13.63 105.594 13.1233 105.908 12.69C106.221 12.2567 106.611 11.9233 107.078 11.69C107.544 11.4567 108.054 11.34 108.608 11.34ZM109.228 13.73C109.241 13.6367 109.248 13.5733 109.248 13.54C109.248 13.2733 109.164 13.07 108.998 12.93C108.831 12.7833 108.611 12.71 108.338 12.71C108.044 12.71 107.784 12.8 107.558 12.98C107.338 13.1533 107.178 13.4033 107.078 13.73H109.228ZM113.8 12.43C114.06 12.0967 114.356 11.8367 114.69 11.65C115.03 11.4567 115.383 11.36 115.75 11.36L115.43 13.17H114.96C114.533 13.17 114.196 13.2633 113.95 13.45C113.703 13.63 113.54 13.95 113.46 14.41L113 17H111.29L112.27 11.42H113.98L113.8 12.43Z" fill="white"/>
<path d="M47.8651 32.0217C47.9327 31.5262 48.3559 31.1567 48.856 31.1567H59.3002C59.9061 31.1567 60.3729 31.6914 60.291 32.2918L58.6924 44.019C58.6249 44.5145 58.2017 44.8839 57.7016 44.8839H47.2574C46.6514 44.8839 46.1847 44.3493 46.2665 43.7489L47.8651 32.0217Z" fill="#C9C9C9"/>
<path d="M64.6918 32.0217C64.7593 31.5262 65.1825 31.1567 65.6826 31.1567H76.1268C76.7328 31.1567 77.1995 31.6914 77.1177 32.2918L75.5191 44.019C75.4515 44.5145 75.0283 44.8839 74.5282 44.8839H64.084C63.4781 44.8839 63.0114 44.3493 63.0932 43.7489L64.6918 32.0217Z" fill="#C9C9C9"/>
<path d="M81.518 32.0217C81.5855 31.5262 82.0087 31.1567 82.5088 31.1567H92.953C93.559 31.1567 94.0257 31.6914 93.9438 32.2918L92.3452 44.019C92.2777 44.5145 91.8545 44.8839 91.3544 44.8839H80.9102C80.3043 44.8839 79.8375 44.3493 79.9194 43.7489L81.518 32.0217Z" fill="#C9C9C9"/>
<path d="M98.3446 32.0217C98.4122 31.5262 98.8354 31.1567 99.3355 31.1567H109.78C110.386 31.1567 110.852 31.6914 110.771 32.2918L109.172 44.019C109.104 44.5145 108.681 44.8839 108.181 44.8839H97.7369C97.1309 44.8839 96.6642 44.3493 96.746 43.7489L98.3446 32.0217Z" fill="#C9C9C9"/>
<path d="M115.171 32.0217C115.238 31.5262 115.662 31.1567 116.162 31.1567H126.606C127.212 31.1567 127.679 31.6914 127.597 32.2918L125.998 44.019C125.931 44.5145 125.507 44.8839 125.007 44.8839H114.563C113.957 44.8839 113.49 44.3493 113.572 43.7489L115.171 32.0217Z" fill="#C9C9C9"/>
<path d="M45.373 54.4543C45.4405 53.9588 45.8637 53.5894 46.3638 53.5894H56.808C57.414 53.5894 57.8807 54.124 57.7988 54.7244L56.2002 66.4516C56.1327 66.9471 55.7095 67.3166 55.2094 67.3166H44.7652C44.1592 67.3166 43.6925 66.7819 43.7744 66.1815L45.373 54.4543Z" fill="#C9C9C9"/>
<path d="M62.1996 54.4543C62.2672 53.9588 62.6904 53.5894 63.1905 53.5894H73.6346C74.2406 53.5894 74.7073 54.124 74.6255 54.7244L73.0269 66.4516C72.9593 66.9471 72.5361 67.3166 72.036 67.3166H61.5919C60.9859 67.3166 60.5192 66.7819 60.601 66.1815L62.1996 54.4543Z" fill="#C9C9C9"/>
<path d="M79.0258 54.4543C79.0933 53.9588 79.5165 53.5894 80.0166 53.5894H90.4608C91.0668 53.5894 91.5335 54.124 91.4517 54.7244L89.8531 66.4516C89.7855 66.9471 89.3623 67.3166 88.8622 67.3166H78.418C77.8121 67.3166 77.3453 66.7819 77.4272 66.1815L79.0258 54.4543Z" fill="#C9C9C9"/>
<path d="M95.8524 54.4543C95.92 53.9588 96.3432 53.5894 96.8433 53.5894H107.287C107.893 53.5894 108.36 54.124 108.278 54.7244L106.68 66.4516C106.612 66.9471 106.189 67.3166 105.689 67.3166H95.2447C94.6387 67.3166 94.172 66.7819 94.2539 66.1815L95.8524 54.4543Z" fill="#C9C9C9"/>
<path d="M112.679 54.4543C112.746 53.9588 113.169 53.5894 113.669 53.5894H124.114C124.72 53.5894 125.186 54.124 125.104 54.7244L123.506 66.4516C123.438 66.9471 123.015 67.3166 122.515 67.3166H112.071C111.465 67.3166 110.998 66.7819 111.08 66.1815L112.679 54.4543Z" fill="#C9C9C9"/>
<path d="M42.8803 76.8874C42.9478 76.3919 43.371 76.0225 43.8711 76.0225H54.3153C54.9213 76.0225 55.388 76.5571 55.3061 77.1575L53.7076 88.8847C53.64 89.3802 53.2168 89.7497 52.7167 89.7497H42.2725C41.6666 89.7497 41.1998 89.215 41.2817 88.6146L42.8803 76.8874Z" fill="#C9C9C9"/>
<path d="M59.7069 76.8874C59.7745 76.3919 60.1977 76.0225 60.6978 76.0225H71.142C71.7479 76.0225 72.2147 76.5571 72.1328 77.1575L70.5342 88.8847C70.4667 89.3802 70.0435 89.7497 69.5434 89.7497H59.0992C58.4932 89.7497 58.0265 89.215 58.1083 88.6146L59.7069 76.8874Z" fill="#C9C9C9"/>
<path d="M76.5331 76.8874C76.6007 76.3919 77.0239 76.0225 77.5239 76.0225H87.9681C88.5741 76.0225 89.0408 76.5571 88.959 77.1575L87.3604 88.8847C87.2928 89.3802 86.8696 89.7497 86.3695 89.7497H75.9254C75.3194 89.7497 74.8527 89.215 74.9345 88.6146L76.5331 76.8874Z" fill="#C9C9C9"/>
<path d="M93.3598 76.8874C93.4273 76.3919 93.8505 76.0225 94.3506 76.0225H104.795C105.401 76.0225 105.867 76.5571 105.786 77.1575L104.187 88.8847C104.119 89.3802 103.696 89.7497 103.196 89.7497H92.752C92.146 89.7497 91.6793 89.215 91.7612 88.6146L93.3598 76.8874Z" fill="#C9C9C9"/>
<path d="M110.186 76.8874C110.253 76.3919 110.677 76.0225 111.177 76.0225H121.621C122.227 76.0225 122.694 76.5571 122.612 77.1575L121.013 88.8847C120.946 89.3802 120.522 89.7497 120.022 89.7497H109.578C108.972 89.7497 108.506 89.215 108.587 88.6146L110.186 76.8874Z" fill="#C9C9C9"/>
<path d="M39.1415 99.32C39.2091 98.8245 39.6323 98.4551 40.1323 98.4551H50.5765C51.1825 98.4551 51.6492 98.9897 51.5674 99.5901L49.9688 111.317C49.9012 111.813 49.478 112.182 48.9779 112.182H38.5338C37.9278 112.182 37.4611 111.648 37.5429 111.047L39.1415 99.32Z" fill="#C9C9C9"/>
<path d="M55.9682 99.32C56.0357 98.8245 56.4589 98.4551 56.959 98.4551H67.4032C68.0092 98.4551 68.4759 98.9897 68.394 99.5901L66.7954 111.317C66.7279 111.813 66.3047 112.182 65.8046 112.182H55.3604C54.7544 112.182 54.2877 111.648 54.3696 111.047L55.9682 99.32Z" fill="#C9C9C9"/>
<path d="M72.7943 99.32C72.8619 98.8245 73.2851 98.4551 73.7852 98.4551H84.2294C84.8353 98.4551 85.3021 98.9897 85.2202 99.5901L83.6216 111.317C83.5541 111.813 83.1309 112.182 82.6308 112.182H72.1866C71.5806 112.182 71.1139 111.648 71.1957 111.047L72.7943 99.32Z" fill="#C9C9C9"/>
<path d="M89.621 99.32C89.6885 98.8245 90.1117 98.4551 90.6118 98.4551H101.056C101.662 98.4551 102.129 98.9897 102.047 99.5901L100.448 111.317C100.381 111.813 99.9575 112.182 99.4574 112.182H89.0132C88.4073 112.182 87.9406 111.648 88.0224 111.047L89.621 99.32Z" fill="#C9C9C9"/>
<path d="M106.447 99.32C106.515 98.8245 106.938 98.4551 107.438 98.4551H117.882C118.488 98.4551 118.955 98.9897 118.873 99.5901L117.274 111.317C117.207 111.813 116.784 112.182 116.284 112.182H105.839C105.233 112.182 104.767 111.648 104.849 111.047L106.447 99.32Z" fill="#C9C9C9"/>
<rect x="141" y="17" width="19" height="7" rx="1" fill="#2BE069"/>
<rect x="20" y="19" width="27" height="17" rx="1" fill="#FB5C5C"/>
<rect x="141" y="27" width="19" height="4" rx="0.5" fill="#2BE069"/>
<rect x="161" y="17" width="6" height="7" rx="1" fill="#2BE069"/>
<rect x="161" y="27" width="6" height="4" rx="0.5" fill="#2BE069"/>
<rect x="25" y="24" width="7" height="7" rx="3" fill="#D9D9D9"/>
<rect x="35" y="24" width="7" height="7" rx="3" fill="#D9D9D9"/>
<rect y="101" width="37" height="25" rx="1" fill="#67DEF8"/>
<g filter="url(#filter0_d_438_251)">
<rect x="14" y="105" width="18" height="12" rx="1" fill="white"/>
</g>
<rect x="5" y="110" width="19" height="12" rx="1" fill="#323232"/>
<rect x="119.642" y="92.2241" width="45.8783" height="23.6791" rx="1" fill="#A431FF"/>
<rect x="124.082" y="96.6641" width="36.9986" height="4.43983" rx="1" fill="#FBFE5F"/>
<rect x="124.082" y="105.543" width="36.9986" height="4.43983" rx="1" fill="#FBFE5F"/>
<defs>
<filter id="filter0_d_438_251" x="10" y="105" width="26" height="20" filterUnits="userSpaceOnUse" color-interpolation-filters="sRGB">
<feFlood flood-opacity="0" result="BackgroundImageFix"/>
<feColorMatrix in="SourceAlpha" type="matrix" values="0 0 0 0 0 0 0 0 0 0 0 0 0 0 0 0 0 0 127 0" result="hardAlpha"/>
<feOffset dy="4"/>
<feGaussianBlur stdDeviation="2"/>
<feComposite in2="hardAlpha" operator="out"/>
<feColorMatrix type="matrix" values="0 0 0 0 0 0 0 0 0 0 0 0 0 0 0 0 0 0 0.25 0"/>
<feBlend mode="normal" in2="BackgroundImageFix" result="effect1_dropShadow_438_251"/>
<feBlend mode="normal" in="SourceGraphic" in2="effect1_dropShadow_438_251" result="shape"/>
</filter>
</defs>
</svg>
