<svg width="79" height="79" viewBox="0 0 79 79" fill="none" xmlns="http://www.w3.org/2000/svg">
<rect width="79" height="79" rx="18" fill="white"/>
<path d="M67.4261 34.9336C66.6576 34.0826 58.381 27.3544 56.9017 26.9195C56.258 26.7326 55.6108 26.6156 54.9419 26.5666C51.8485 26.34 48.436 27.3097 46.2856 29.6277C46.0983 29.8297 45.9911 29.9451 45.9911 29.9451C45.9911 29.9451 46.0711 29.8087 46.2114 29.5701C46.8746 28.4517 47.8408 27.4805 48.8755 26.7029C49.3523 26.3446 49.8574 26.0238 50.3847 25.7452C50.5293 25.6688 51.8741 24.9422 51.9645 25.0374L51.2304 24.2632C50.0501 23.0826 48.773 22.0649 47.0339 22.0649C44.8783 22.0649 43.0363 23.4016 42.2869 25.2906C41.651 24.8179 40.6395 24.5121 39.4999 24.5121C38.3603 24.5121 37.3488 24.8179 36.7128 25.2906C35.9634 23.4015 34.1214 22.0649 31.9658 22.0649C30.2267 22.0649 28.9496 23.0826 27.7693 24.2631L27.0351 25.0374C27.1255 24.942 28.4703 25.6687 28.6149 25.7451C29.1423 26.0238 29.6473 26.3445 30.1242 26.7028C31.159 27.4804 32.1251 28.4517 32.7883 29.57C32.9285 29.8087 33.0086 29.9451 33.0086 29.9451C33.0086 29.9451 32.9016 29.8296 32.7141 29.6276C30.5637 27.3097 27.1513 26.34 24.0579 26.5665C23.389 26.6155 22.7418 26.7325 22.0981 26.9194C20.6187 27.3544 12.3421 34.0825 11.5737 34.9335C9.35273 37.3933 8 40.6524 8 44.2278C8 51.8893 14.2102 58.1004 21.871 58.1004C28.8789 58.1004 34.6719 52.9024 35.6085 46.1514C36.7007 46.9472 38.0454 47.417 39.5 47.417C40.9547 47.417 42.2993 46.9472 43.3915 46.1514C44.3281 52.9024 50.1211 58.1004 57.129 58.1004C64.7898 58.1004 71 51.8893 71 44.2278C70.9999 40.6524 69.6471 37.3934 67.4261 34.9336ZM21.5633 52.9409C16.9434 52.9409 13.1983 49.1952 13.1983 44.5749C13.1983 39.9545 16.9434 36.2089 21.5633 36.2089C26.1831 36.2089 29.9283 39.9545 29.9283 44.5749C29.9283 49.1952 26.1831 52.9409 21.5633 52.9409ZM39.4999 43.789C38.2813 43.789 37.2935 42.801 37.2935 41.5823C37.2935 40.3637 38.2813 39.3758 39.4999 39.3758C40.7184 39.3758 41.7062 40.3637 41.7062 41.5823C41.7062 42.801 40.7184 43.789 39.4999 43.789ZM57.4365 52.9409C52.8166 52.9409 49.0714 49.1952 49.0714 44.5749C49.0714 39.9545 52.8166 36.2089 57.4365 36.2089C62.0563 36.2089 65.8015 39.9545 65.8015 44.5749C65.8015 49.1952 62.0563 52.9409 57.4365 52.9409Z" fill="#020202"/>
<circle cx="22.3947" cy="44.3947" r="2.39474" fill="#333333"/>
<circle cx="57.3947" cy="44.3947" r="2.39474" fill="#333333"/>
</svg>
