<svg width="739" height="747" viewBox="0 0 739 747" fill="none" xmlns="http://www.w3.org/2000/svg">
<g filter="url(#filter0_f_620_26)">
<ellipse cx="324.5" cy="348" rx="198.5" ry="183" fill="url(#paint0_radial_620_26)" fill-opacity="0.6"/>
</g>
<path d="M175.974 401H485.19L553 495.587L139 508L175.974 401Z" fill="#7E7E7E"/>
<path d="M176 202C176 199.791 177.791 198 180 198H481C483.209 198 485 199.791 485 202V392H176V202Z" fill="#F6F6F6"/>
<rect x="181" y="203" width="299" height="174" rx="1" fill="url(#paint1_linear_620_26)"/>
<path d="M175.983 392H485.27L554 488.3L138 500L175.983 392Z" fill="#D9D9D9"/>
<path d="M291.304 456.534C291.519 455.634 292.324 455 293.249 455L389.4 455.001C390.084 455.001 390.721 455.35 391.088 455.927L407.097 481.086C407.933 482.4 407.013 484.123 405.457 484.16L286.597 486.939C285.285 486.97 284.3 485.75 284.606 484.474L291.304 456.534Z" fill="#3D3D3D"/>
<path d="M179.918 404.366C180.191 403.55 180.955 403 181.815 403H481.387C482.046 403 482.663 403.325 483.036 403.869L511.852 445.869C512.762 447.196 511.812 449 510.202 449H167.777C166.411 449 165.447 447.661 165.88 446.366L179.918 404.366Z" fill="#B8B8B8"/>
<defs>
<filter id="filter0_f_620_26" x="-90" y="-51" width="829" height="798" filterUnits="userSpaceOnUse" color-interpolation-filters="sRGB">
<feFlood flood-opacity="0" result="BackgroundImageFix"/>
<feBlend mode="normal" in="SourceGraphic" in2="BackgroundImageFix" result="shape"/>
<feGaussianBlur stdDeviation="108" result="effect1_foregroundBlur_620_26"/>
</filter>
<radialGradient id="paint0_radial_620_26" cx="0" cy="0" r="1" gradientUnits="userSpaceOnUse" gradientTransform="translate(324.5 348) rotate(90) scale(183 198.5)">
<stop stop-color="#FF0000"/>
<stop offset="0.547916" stop-color="#00B2FF"/>
<stop offset="1" stop-color="#2BE069"/>
</radialGradient>
<linearGradient id="paint1_linear_620_26" x1="214.809" y1="232.349" x2="447.608" y2="344.897" gradientUnits="userSpaceOnUse">
<stop stop-color="#FF0000"/>
<stop offset="0.244969" stop-color="#FF5C00" stop-opacity="0.8"/>
<stop offset="0.801838" stop-color="#1C00C6"/>
<stop offset="1" stop-color="#005BC6"/>
</linearGradient>
</defs>
</svg>
